<svg width="40" height="40" viewBox="0 0 40 40" fill="#D8E3C7" xmlns="http://www.w3.org/2000/svg">
<g clip-path="url(#clip0_117_2675)">
<path d="M18.9234 4.65409C18.1675 7.42094 17.5736 9.81389 17.5736 9.96345C17.5736 10.0881 17.8436 10.2376 18.1945 10.2875C19.0583 10.4121 18.9234 10.8359 18.0325 10.8359H17.2497L16.1429 15.0485C15.522 17.3916 15.0091 19.4605 15.0091 19.6599C15.0091 19.8842 15.468 20.1584 16.1699 20.3578L17.3037 20.6819L15.9539 20.8065L14.6312 20.9312L13.8213 23.9223L13.0115 26.9135L12.6876 25.7918C12.4986 25.1687 11.4728 21.3051 10.42 17.1922C9.3402 13.0793 8.36839 9.56463 8.26041 9.39014C8.17943 9.21565 7.45057 11.5089 6.64072 14.5001C5.85787 17.4913 5.15601 20.0837 5.10202 20.2332C5.02103 20.4326 5.183 20.5573 5.53394 20.5573C6.28979 20.5573 6.2628 21.0059 5.50694 21.1056C4.94005 21.1804 4.77808 21.5792 3.88725 24.7948C3.32036 26.7889 2.91544 28.6335 2.94243 28.8827C2.96943 29.2068 3.34736 29.4561 4.07622 29.6555L5.15601 29.9546L3.83326 30.0543L2.48352 30.154L1.24176 34.8901L0 39.6261L0.917824 39.7009C2.51052 39.8504 2.5915 39.7258 2.5915 37.4575C2.5915 35.912 2.51052 35.4883 2.29456 35.7625C1.78166 36.4106 2.26756 34.0675 2.86145 33.0206C3.83326 31.2508 5.66891 30.3783 8.63834 30.2288C10.204 30.154 10.231 30.154 10.528 30.9516C10.9599 32.1232 11.2028 32.198 11.0409 31.0763C10.9329 30.2786 11.0139 29.9795 11.4728 29.5558C12.1207 28.9575 12.7685 28.9077 14.7932 29.3065C16.6288 29.6804 17.6816 30.6775 18.6264 32.9707C19.3013 34.5909 19.6522 34.9648 20.948 35.3387C21.1639 35.4135 20.894 35.4883 20.3541 35.4883C19.3823 35.5132 19.3283 35.5381 19.3283 36.3856C19.3283 36.8593 19.1933 37.5073 19.0313 37.8563C18.3025 39.3021 15.684 39.2771 15.8729 37.8065C15.9269 37.4076 16.1159 37.1334 16.3589 37.1334C16.6018 37.1334 16.7368 37.3079 16.6828 37.5572C16.5748 38.1305 17.5736 38.1554 17.8166 37.6071C18.3025 36.4355 17.7626 34.4164 17.0607 34.6657C16.8448 34.7405 16.4128 34.6906 16.1159 34.5162C15.63 34.2918 15.441 34.3417 14.8471 34.9399C14.2263 35.5631 14.1723 35.7874 14.3073 37.2581C14.3612 38.1554 14.5232 39.0777 14.6042 39.3021C14.8471 39.8504 16.3589 40.0499 19.3283 39.9502L21.6228 39.8754L21.5958 36.1364C21.5419 31.2757 21.3529 28.4091 21.002 27.1628C20.84 26.6144 20.57 25.0191 20.4351 23.6482C20.0841 20.4077 19.8412 19.8095 18.8694 19.7845C18.4375 19.7596 18.0055 19.7347 17.8436 19.6848C17.7086 19.6599 17.4117 19.61 17.2497 19.61C16.3589 19.5103 17.0337 18.8373 18.4645 18.4385C19.3013 18.1643 20.1111 17.8652 20.2731 17.7655C20.732 17.4165 20.975 17.5661 20.813 18.0646C20.678 18.4634 20.759 18.5631 21.1909 18.5631C21.7848 18.5631 21.9738 18.962 21.4609 19.1115C21.2989 19.1614 21.4879 20.0338 21.9738 21.4297C22.8376 23.9473 23.5935 25.4179 24.4303 26.1907C24.9972 26.7889 27.3457 27.7112 27.5887 27.4619C27.6967 27.3871 27.4537 26.1657 27.0758 24.7449C26.3739 22.1526 24.0794 13.503 21.8658 5.10276C21.2179 2.56025 20.57 0.29193 20.4621 0.0426639C20.3271 -0.281382 19.8142 1.23914 18.9234 4.65409Z"/>
<path d="M14.7931 4.23032C14.4691 4.57929 14.0912 4.85349 13.9292 4.85349C13.7943 4.85349 13.6593 4.92827 13.6593 5.02797C13.6593 5.15261 14.0102 5.22739 14.4422 5.22739C15.117 5.22739 15.252 5.10275 15.387 4.50452C15.6029 3.53238 15.4949 3.48252 14.7931 4.23032Z"/>
<path d="M27.4268 10.2127C27.4268 10.3374 27.6427 11.0852 27.8857 11.8828C28.2096 12.9048 28.4796 13.3036 28.7225 13.2039C28.9385 13.1291 29.5863 13.0793 30.2072 13.0793H31.314L30.3152 12.6057C29.3974 12.1819 29.0464 11.8579 27.7777 10.3623C27.5887 10.1379 27.4268 10.0632 27.4268 10.2127Z" />
<path d="M32.7177 19.3109C32.1508 21.4297 31.6379 23.349 31.5839 23.5734C31.5029 23.8725 31.7189 24.047 32.3397 24.1965L33.2306 24.3959L32.2588 24.4707L31.2869 24.5704L30.801 26.4898C30.4231 28.0352 30.3961 28.6085 30.6391 29.4062C31.017 30.6775 31.044 35.3637 30.6661 35.1393C30.5041 35.0396 30.3961 35.8373 30.3961 37.3578C30.3961 39.7507 30.3961 39.7507 31.071 39.7507C31.6919 39.7507 31.7459 39.651 31.7459 38.654C31.7459 37.4076 32.7447 36.0117 33.6625 36.0117C34.2834 36.0117 34.3644 35.1393 33.7705 34.6159C33.3116 34.1672 33.2306 33.5191 33.6625 33.5191C34.1754 33.5191 34.9852 34.0176 34.9852 34.3666C34.9852 34.5411 35.2822 34.8153 35.6601 34.9648C36.47 35.3138 36.4969 35.7126 35.7681 36.8592C35.4711 37.3329 35.2822 37.8563 35.3632 37.9809C35.4441 38.1056 35.3362 38.5293 35.1202 38.9032C34.6073 39.8504 34.9043 40 37.4148 40C40.0873 40 40.2222 39.9003 39.8443 38.3548C39.5204 37.0088 34.3104 17.3916 33.9594 16.1951C33.7705 15.547 33.6085 15.9957 32.7177 19.3109Z" />
<path d="M30.0182 31.8241C29.9103 32.4971 29.9103 33.4443 30.0182 33.9428L30.2342 34.89L30.3422 33.8182C30.3962 33.2449 30.3962 32.2977 30.3422 31.6994L30.2612 30.6525L30.0182 31.8241Z" />
<path d="M15.8188 31.525C15.8188 31.6496 15.9538 31.7742 16.0888 31.7742C16.2508 31.7742 16.3587 31.6496 16.3587 31.525C16.3587 31.3754 16.2508 31.2757 16.0888 31.2757C15.9538 31.2757 15.8188 31.3754 15.8188 31.525Z" />
<path d="M26.2121 31.7992C25.9151 31.8989 25.2673 31.9986 24.7814 31.9986L23.8905 32.0235L24.0525 33.6936C24.1605 34.6408 24.1065 36.3358 23.9445 37.4824C23.7826 38.654 23.7286 39.651 23.8095 39.7258C23.8905 39.8006 24.9163 39.9003 26.1041 39.9252C28.1827 39.9502 28.2367 39.9252 28.3987 39.327C28.6686 38.4047 28.2907 35.8373 27.8318 35.1642C27.5888 34.8402 27.2649 33.893 27.0759 33.0953C26.779 31.7493 26.698 31.6247 26.2121 31.7992Z" />
<path d="M22.6216 36.5601C22.5946 38.5293 22.6756 39.7507 22.8375 39.7507C23.1615 39.7507 23.1885 35.8622 22.8645 34.3915C22.7026 33.6686 22.6486 34.2918 22.6216 36.5601Z" />
<path d="M28.9923 35.937C29.1273 36.4604 29.1813 36.5103 29.2623 36.1613C29.3163 35.912 29.2623 35.6129 29.1003 35.4633C28.9384 35.3138 28.9114 35.4633 28.9923 35.937Z" />
<path d="M29.3973 38.1305C29.3973 38.9531 29.4513 39.2522 29.5053 38.8035C29.5593 38.3548 29.5593 37.6818 29.5053 37.3079C29.4513 36.934 29.3973 37.3079 29.3973 38.1305Z" />
<path d="M6.80267 37.2082C6.69469 37.283 7.15361 39.5513 7.28858 39.6759C7.34257 39.7258 7.82848 39.8006 8.36837 39.8504C9.7991 39.9501 10.123 39.6012 9.90708 38.2551L9.74511 37.1334H8.31438C7.50454 37.1334 6.82967 37.1584 6.80267 37.2082Z" />
<path d="M11.7968 38.6789C11.7698 39.8504 11.8238 40 12.3367 40C12.9306 40 12.9036 39.7258 12.1747 38.1305C11.8238 37.3827 11.8238 37.4076 11.7968 38.6789Z" />
<path d="M4.53515 38.4795C4.07623 39.651 4.13022 39.7507 4.88608 39.7507C5.64193 39.7507 5.64193 39.7258 5.18302 38.5044L4.83209 37.6569L4.53515 38.4795Z" />
</g>
<defs>
<clipPath id="clip0_117_2675">
<rect width="40" height="40" fill="white"/>
</clipPath>
</defs>
</svg>
